<mxfile host="www.draw.io" modified="2020-04-06T03:51:31.486Z" agent="5.0 (Macintosh; Intel Mac OS X 10_15_3) AppleWebKit/537.36 (KHTML, like Gecko) Chrome/80.0.3987.149 Safari/537.36" etag="B191gottE8vC17-V0X1k" version="12.9.7" type="github" pages="7">
  <diagram id="QYDGk-V72FldWnktagho" name="Page-1">
    <mxGraphModel dx="1544" dy="1000" grid="1" gridSize="10" guides="1" tooltips="1" connect="1" arrows="1" fold="1" page="1" pageScale="1" pageWidth="1000" pageHeight="1000" math="0" shadow="0" extFonts="Computer Modern^https://fonts.googleapis.com/css?family=Computer+Modern">
      <root>
        <mxCell id="0" />
        <mxCell id="1" parent="0" />
        <mxCell id="0RItgT0RM361GnRo36bi-1" value="&lt;font color=&quot;#ffffff&quot; style=&quot;font-size: 30px;&quot;&gt;&lt;b style=&quot;font-size: 30px;&quot;&gt;Initial &lt;br style=&quot;font-size: 30px;&quot;&gt;Config&lt;/b&gt;&lt;/font&gt;" style="rounded=1;whiteSpace=wrap;html=1;fillColor=#34A853;strokeColor=#000000;rotation=0;align=center;fontSize=30;fontFamily=Computer Modern;" parent="1" vertex="1">
          <mxGeometry x="120" y="700" width="200" height="100" as="geometry" />
        </mxCell>
        <mxCell id="0RItgT0RM361GnRo36bi-2" value="&lt;font style=&quot;font-size: 58px;&quot; color=&quot;#ffffff&quot;&gt;Goal&lt;/font&gt;" style="ellipse;whiteSpace=wrap;html=1;aspect=fixed;strokeColor=#000000;fillColor=#EA4335;fontFamily=Computer Modern;FType=g;fontSize=58;" parent="1" vertex="1">
          <mxGeometry x="680" y="160" width="160" height="160" as="geometry" />
        </mxCell>
        <mxCell id="5UrKuj8VUEnY5ykAYIqW-1" value="" style="endArrow=none;html=1;strokeColor=#000000;strokeWidth=6;fontColor=#FFFFFF;fontFamily=Computer Modern;" parent="1" edge="1">
          <mxGeometry width="50" height="50" relative="1" as="geometry">
            <mxPoint x="40" y="960" as="sourcePoint" />
            <mxPoint x="40" y="40" as="targetPoint" />
          </mxGeometry>
        </mxCell>
        <mxCell id="5UrKuj8VUEnY5ykAYIqW-2" value="" style="endArrow=none;html=1;strokeColor=#000000;strokeWidth=6;fontColor=#FFFFFF;fontFamily=Computer Modern;" parent="1" edge="1">
          <mxGeometry width="50" height="50" relative="1" as="geometry">
            <mxPoint x="960" y="960" as="sourcePoint" />
            <mxPoint x="960" y="40" as="targetPoint" />
          </mxGeometry>
        </mxCell>
        <mxCell id="5UrKuj8VUEnY5ykAYIqW-3" value="" style="endArrow=none;html=1;strokeColor=#000000;strokeWidth=6;fontColor=#FFFFFF;fontFamily=Computer Modern;" parent="1" edge="1">
          <mxGeometry width="50" height="50" relative="1" as="geometry">
            <mxPoint x="40" y="960" as="sourcePoint" />
            <mxPoint x="960" y="960" as="targetPoint" />
          </mxGeometry>
        </mxCell>
        <mxCell id="5UrKuj8VUEnY5ykAYIqW-4" value="" style="endArrow=none;html=1;strokeColor=#000000;strokeWidth=6;fontColor=#FFFFFF;fontFamily=Computer Modern;" parent="1" edge="1">
          <mxGeometry width="50" height="50" relative="1" as="geometry">
            <mxPoint x="40" y="40" as="sourcePoint" />
            <mxPoint x="960" y="40" as="targetPoint" />
          </mxGeometry>
        </mxCell>
      </root>
    </mxGraphModel>
  </diagram>
  <diagram name="Copy of Page-1" id="KX7rdHfyXZb1NBhcGPva">
    <mxGraphModel dx="1544" dy="1000" grid="1" gridSize="10" guides="1" tooltips="1" connect="1" arrows="1" fold="1" page="1" pageScale="1" pageWidth="1000" pageHeight="1000" math="0" shadow="0" extFonts="Computer Modern^https://fonts.googleapis.com/css?family=Computer+Modern">
      <root>
        <mxCell id="76mG4lgnANxHGwK9NYwa-0" />
        <mxCell id="76mG4lgnANxHGwK9NYwa-1" parent="76mG4lgnANxHGwK9NYwa-0" />
        <mxCell id="76mG4lgnANxHGwK9NYwa-2" value="&lt;font color=&quot;#ffffff&quot; style=&quot;font-size: 30px;&quot;&gt;&lt;b style=&quot;font-size: 30px;&quot;&gt;Initial &lt;br style=&quot;font-size: 30px;&quot;&gt;Config&lt;/b&gt;&lt;/font&gt;" style="rounded=1;whiteSpace=wrap;html=1;fillColor=#34A853;strokeColor=#000000;rotation=0;align=center;fontSize=30;fontFamily=Computer Modern;" vertex="1" parent="76mG4lgnANxHGwK9NYwa-1">
          <mxGeometry x="120" y="700" width="200" height="100" as="geometry" />
        </mxCell>
        <mxCell id="76mG4lgnANxHGwK9NYwa-3" value="&lt;font style=&quot;font-size: 58px;&quot; color=&quot;#ffffff&quot;&gt;Goal&lt;/font&gt;" style="ellipse;whiteSpace=wrap;html=1;aspect=fixed;strokeColor=#000000;fillColor=#EA4335;fontFamily=Computer Modern;FType=g;fontSize=58;" vertex="1" parent="76mG4lgnANxHGwK9NYwa-1">
          <mxGeometry x="680" y="160" width="160" height="160" as="geometry" />
        </mxCell>
        <mxCell id="76mG4lgnANxHGwK9NYwa-4" value="" style="endArrow=none;html=1;strokeColor=#000000;strokeWidth=6;fontColor=#FFFFFF;fontFamily=Computer Modern;" edge="1" parent="76mG4lgnANxHGwK9NYwa-1">
          <mxGeometry width="50" height="50" relative="1" as="geometry">
            <mxPoint x="40" y="960" as="sourcePoint" />
            <mxPoint x="40" y="40" as="targetPoint" />
          </mxGeometry>
        </mxCell>
        <mxCell id="76mG4lgnANxHGwK9NYwa-5" value="" style="endArrow=none;html=1;strokeColor=#000000;strokeWidth=6;fontColor=#FFFFFF;fontFamily=Computer Modern;" edge="1" parent="76mG4lgnANxHGwK9NYwa-1">
          <mxGeometry width="50" height="50" relative="1" as="geometry">
            <mxPoint x="960" y="960" as="sourcePoint" />
            <mxPoint x="960" y="40" as="targetPoint" />
          </mxGeometry>
        </mxCell>
        <mxCell id="76mG4lgnANxHGwK9NYwa-6" value="" style="endArrow=none;html=1;strokeColor=#000000;strokeWidth=6;fontColor=#FFFFFF;fontFamily=Computer Modern;" edge="1" parent="76mG4lgnANxHGwK9NYwa-1">
          <mxGeometry width="50" height="50" relative="1" as="geometry">
            <mxPoint x="40" y="960" as="sourcePoint" />
            <mxPoint x="960" y="960" as="targetPoint" />
          </mxGeometry>
        </mxCell>
        <mxCell id="76mG4lgnANxHGwK9NYwa-7" value="" style="endArrow=none;html=1;strokeColor=#000000;strokeWidth=6;fontColor=#FFFFFF;fontFamily=Computer Modern;" edge="1" parent="76mG4lgnANxHGwK9NYwa-1">
          <mxGeometry width="50" height="50" relative="1" as="geometry">
            <mxPoint x="40" y="40" as="sourcePoint" />
            <mxPoint x="960" y="40" as="targetPoint" />
          </mxGeometry>
        </mxCell>
        <mxCell id="76mG4lgnANxHGwK9NYwa-8" value="&lt;font color=&quot;#ffffff&quot;&gt;&lt;b&gt;Random Config&lt;/b&gt;&lt;/font&gt;" style="rounded=1;whiteSpace=wrap;html=1;fillColor=#4285F4;strokeColor=#000000;rotation=-25;align=center;fontSize=30;fontFamily=Computer Modern;" vertex="1" parent="76mG4lgnANxHGwK9NYwa-1">
          <mxGeometry x="300" y="320" width="200" height="100" as="geometry" />
        </mxCell>
      </root>
    </mxGraphModel>
  </diagram>
  <diagram name="Copy of Copy of Copy of Page-1" id="zhf7LWvD2noAlcLW-Yz8">
    <mxGraphModel dx="1103" dy="714" grid="1" gridSize="10" guides="1" tooltips="1" connect="1" arrows="1" fold="1" page="1" pageScale="1" pageWidth="1000" pageHeight="1000" math="0" shadow="0" extFonts="Computer Modern^https://fonts.googleapis.com/css?family=Computer+Modern">
      <root>
        <mxCell id="PNUwHadK3woV_2Xainw9-0" />
        <mxCell id="PNUwHadK3woV_2Xainw9-1" parent="PNUwHadK3woV_2Xainw9-0" />
        <mxCell id="r926kdztX8l7WFg1njqz-0" value="" style="endArrow=none;html=1;strokeColor=#EA4335;strokeWidth=6;fontFamily=Computer Modern;fontSize=80;fontColor=#FBBC05;exitX=0.505;exitY=0.5;exitDx=0;exitDy=0;exitPerimeter=0;" edge="1" parent="PNUwHadK3woV_2Xainw9-1" source="PNUwHadK3woV_2Xainw9-2">
          <mxGeometry width="50" height="50" relative="1" as="geometry">
            <mxPoint x="260" y="600" as="sourcePoint" />
            <mxPoint x="310" y="550" as="targetPoint" />
          </mxGeometry>
        </mxCell>
        <mxCell id="PNUwHadK3woV_2Xainw9-2" value="&lt;font color=&quot;#ffffff&quot; style=&quot;font-size: 30px;&quot;&gt;&lt;b style=&quot;font-size: 30px;&quot;&gt;Initial &lt;br style=&quot;font-size: 30px;&quot;&gt;Config&lt;/b&gt;&lt;/font&gt;" style="rounded=1;whiteSpace=wrap;html=1;fillColor=#34A853;strokeColor=#000000;rotation=0;align=center;fontSize=30;fontFamily=Computer Modern;" vertex="1" parent="PNUwHadK3woV_2Xainw9-1">
          <mxGeometry x="120" y="700" width="200" height="100" as="geometry" />
        </mxCell>
        <mxCell id="PNUwHadK3woV_2Xainw9-3" value="&lt;font style=&quot;font-size: 58px;&quot; color=&quot;#ffffff&quot;&gt;Goal&lt;/font&gt;" style="ellipse;whiteSpace=wrap;html=1;aspect=fixed;strokeColor=#000000;fillColor=#EA4335;fontFamily=Computer Modern;FType=g;fontSize=58;" vertex="1" parent="PNUwHadK3woV_2Xainw9-1">
          <mxGeometry x="680" y="160" width="160" height="160" as="geometry" />
        </mxCell>
        <mxCell id="PNUwHadK3woV_2Xainw9-4" value="" style="endArrow=none;html=1;strokeColor=#000000;strokeWidth=6;fontColor=#FFFFFF;fontFamily=Computer Modern;" edge="1" parent="PNUwHadK3woV_2Xainw9-1">
          <mxGeometry width="50" height="50" relative="1" as="geometry">
            <mxPoint x="40" y="960" as="sourcePoint" />
            <mxPoint x="40" y="40" as="targetPoint" />
          </mxGeometry>
        </mxCell>
        <mxCell id="PNUwHadK3woV_2Xainw9-5" value="" style="endArrow=none;html=1;strokeColor=#000000;strokeWidth=6;fontColor=#FFFFFF;fontFamily=Computer Modern;" edge="1" parent="PNUwHadK3woV_2Xainw9-1">
          <mxGeometry width="50" height="50" relative="1" as="geometry">
            <mxPoint x="960" y="960" as="sourcePoint" />
            <mxPoint x="960" y="40" as="targetPoint" />
          </mxGeometry>
        </mxCell>
        <mxCell id="PNUwHadK3woV_2Xainw9-6" value="" style="endArrow=none;html=1;strokeColor=#000000;strokeWidth=6;fontColor=#FFFFFF;fontFamily=Computer Modern;" edge="1" parent="PNUwHadK3woV_2Xainw9-1">
          <mxGeometry width="50" height="50" relative="1" as="geometry">
            <mxPoint x="40" y="960" as="sourcePoint" />
            <mxPoint x="960" y="960" as="targetPoint" />
          </mxGeometry>
        </mxCell>
        <mxCell id="PNUwHadK3woV_2Xainw9-7" value="" style="endArrow=none;html=1;strokeColor=#000000;strokeWidth=6;fontColor=#FFFFFF;fontFamily=Computer Modern;" edge="1" parent="PNUwHadK3woV_2Xainw9-1">
          <mxGeometry width="50" height="50" relative="1" as="geometry">
            <mxPoint x="40" y="40" as="sourcePoint" />
            <mxPoint x="960" y="40" as="targetPoint" />
          </mxGeometry>
        </mxCell>
        <mxCell id="PNUwHadK3woV_2Xainw9-9" value="&lt;font color=&quot;#ffffff&quot;&gt;&lt;b&gt;New&lt;br&gt;Config&lt;br&gt;&lt;/b&gt;&lt;/font&gt;" style="rounded=1;whiteSpace=wrap;html=1;fillColor=#4285F4;strokeColor=#000000;rotation=-25;align=center;fontSize=30;fontFamily=Computer Modern;" vertex="1" parent="PNUwHadK3woV_2Xainw9-1">
          <mxGeometry x="210" y="500" width="200" height="100" as="geometry" />
        </mxCell>
        <mxCell id="frEJHEPvDyDk0eQ61P8P-0" value="&lt;font color=&quot;#ffffff&quot;&gt;&lt;b&gt;Random Config&lt;/b&gt;&lt;/font&gt;" style="rounded=1;whiteSpace=wrap;html=1;fillColor=#999999;strokeColor=#000000;rotation=-25;align=center;fontSize=30;fontFamily=Computer Modern;" vertex="1" parent="PNUwHadK3woV_2Xainw9-1">
          <mxGeometry x="300" y="320" width="200" height="100" as="geometry" />
        </mxCell>
        <mxCell id="r926kdztX8l7WFg1njqz-1" value="&lt;p class=&quot;p1&quot; style=&quot;margin: 0px; font-stretch: normal; line-height: normal; font-family: times;&quot;&gt;ε&lt;/p&gt;" style="text;html=1;strokeColor=none;fillColor=none;align=center;verticalAlign=middle;whiteSpace=wrap;rounded=0;fontFamily=Computer Modern;fontSize=80;fontColor=#EA4335;" vertex="1" parent="PNUwHadK3woV_2Xainw9-1">
          <mxGeometry x="290" y="640" width="40" height="20" as="geometry" />
        </mxCell>
      </root>
    </mxGraphModel>
  </diagram>
  <diagram name="Copy of Copy of Page-1" id="KTUd-HybZwmeZtTPw7ix">
    <mxGraphModel dx="1287" dy="833" grid="1" gridSize="10" guides="1" tooltips="1" connect="1" arrows="1" fold="1" page="1" pageScale="1" pageWidth="1000" pageHeight="1000" math="0" shadow="0" extFonts="Computer Modern^https://fonts.googleapis.com/css?family=Computer+Modern">
      <root>
        <mxCell id="Pf7Wr0SnzcLk5Ec8hKG--0" />
        <mxCell id="Pf7Wr0SnzcLk5Ec8hKG--1" parent="Pf7Wr0SnzcLk5Ec8hKG--0" />
        <mxCell id="3Axvdb4ZnlNxERFfCfOT-12" value="" style="endArrow=none;html=1;fontFamily=Computer Modern;fontSize=80;fontColor=#FBBC05;exitX=0.474;exitY=0.588;exitDx=0;exitDy=0;exitPerimeter=0;entryX=0.463;entryY=0.542;entryDx=0;entryDy=0;entryPerimeter=0;strokeWidth=6;strokeColor=#EA4335;" edge="1" parent="Pf7Wr0SnzcLk5Ec8hKG--1" source="3Axvdb4ZnlNxERFfCfOT-11">
          <mxGeometry width="50" height="50" relative="1" as="geometry">
            <mxPoint x="792.8423037801304" y="502.07442056783503" as="sourcePoint" />
            <mxPoint x="506.99831907523975" y="377.0038678424349" as="targetPoint" />
          </mxGeometry>
        </mxCell>
        <mxCell id="3Axvdb4ZnlNxERFfCfOT-10" value="" style="endArrow=none;html=1;fontFamily=Computer Modern;fontSize=80;fontColor=#FBBC05;exitX=0.488;exitY=0.456;exitDx=0;exitDy=0;exitPerimeter=0;entryX=0.463;entryY=0.542;entryDx=0;entryDy=0;entryPerimeter=0;strokeWidth=6;strokeColor=#EA4335;" edge="1" parent="Pf7Wr0SnzcLk5Ec8hKG--1" source="Pf7Wr0SnzcLk5Ec8hKG--9">
          <mxGeometry width="50" height="50" relative="1" as="geometry">
            <mxPoint x="437.8423037801303" y="487.07442056783503" as="sourcePoint" />
            <mxPoint x="151.99831907523975" y="362.0038678424349" as="targetPoint" />
          </mxGeometry>
        </mxCell>
        <mxCell id="3Axvdb4ZnlNxERFfCfOT-8" value="" style="endArrow=none;html=1;fontFamily=Computer Modern;fontSize=80;fontColor=#FBBC05;exitX=0.542;exitY=0.472;exitDx=0;exitDy=0;exitPerimeter=0;entryX=0.463;entryY=0.542;entryDx=0;entryDy=0;entryPerimeter=0;strokeWidth=6;strokeColor=#EA4335;" edge="1" parent="Pf7Wr0SnzcLk5Ec8hKG--1" source="3Axvdb4ZnlNxERFfCfOT-5">
          <mxGeometry width="50" height="50" relative="1" as="geometry">
            <mxPoint x="760.8423037801304" y="487.07442056783503" as="sourcePoint" />
            <mxPoint x="474.99831907523975" y="362.0038678424349" as="targetPoint" />
          </mxGeometry>
        </mxCell>
        <mxCell id="3Axvdb4ZnlNxERFfCfOT-6" value="" style="endArrow=none;html=1;fontFamily=Computer Modern;fontSize=80;fontColor=#FBBC05;exitX=0.521;exitY=0.427;exitDx=0;exitDy=0;exitPerimeter=0;entryX=0.505;entryY=0.54;entryDx=0;entryDy=0;entryPerimeter=0;strokeWidth=6;strokeColor=#EA4335;" edge="1" parent="Pf7Wr0SnzcLk5Ec8hKG--1" source="3Axvdb4ZnlNxERFfCfOT-1" target="3Axvdb4ZnlNxERFfCfOT-5">
          <mxGeometry width="50" height="50" relative="1" as="geometry">
            <mxPoint x="600.9123037801303" y="692.004420567835" as="sourcePoint" />
            <mxPoint x="315.06831907523974" y="566.9338678424349" as="targetPoint" />
          </mxGeometry>
        </mxCell>
        <mxCell id="3Axvdb4ZnlNxERFfCfOT-4" value="" style="endArrow=none;html=1;fontFamily=Computer Modern;fontSize=80;fontColor=#FBBC05;exitX=0.525;exitY=0.54;exitDx=0;exitDy=0;exitPerimeter=0;entryX=0.496;entryY=0.471;entryDx=0;entryDy=0;entryPerimeter=0;strokeWidth=6;strokeColor=#EA4335;" edge="1" parent="Pf7Wr0SnzcLk5Ec8hKG--1" source="3Axvdb4ZnlNxERFfCfOT-3" target="3Axvdb4ZnlNxERFfCfOT-1">
          <mxGeometry width="50" height="50" relative="1" as="geometry">
            <mxPoint x="600.9123037801303" y="785.074420567835" as="sourcePoint" />
            <mxPoint x="315.06831907523974" y="660.0038678424348" as="targetPoint" />
          </mxGeometry>
        </mxCell>
        <mxCell id="3Axvdb4ZnlNxERFfCfOT-2" value="" style="endArrow=none;html=1;fontFamily=Computer Modern;fontSize=80;fontColor=#FBBC05;exitX=0.507;exitY=0.517;exitDx=0;exitDy=0;exitPerimeter=0;entryX=0.463;entryY=0.542;entryDx=0;entryDy=0;entryPerimeter=0;strokeWidth=6;strokeColor=#EA4335;" edge="1" parent="Pf7Wr0SnzcLk5Ec8hKG--1" source="3Axvdb4ZnlNxERFfCfOT-1" target="Pf7Wr0SnzcLk5Ec8hKG--9">
          <mxGeometry width="50" height="50" relative="1" as="geometry">
            <mxPoint x="231" y="760" as="sourcePoint" />
            <mxPoint x="320" y="560" as="targetPoint" />
          </mxGeometry>
        </mxCell>
        <mxCell id="3Axvdb4ZnlNxERFfCfOT-0" value="" style="endArrow=none;html=1;fontFamily=Computer Modern;fontSize=80;fontColor=#FBBC05;exitX=0.505;exitY=0.5;exitDx=0;exitDy=0;exitPerimeter=0;entryX=0.5;entryY=0.5;entryDx=0;entryDy=0;entryPerimeter=0;strokeWidth=6;strokeColor=#EA4335;" edge="1" parent="Pf7Wr0SnzcLk5Ec8hKG--1" source="Pf7Wr0SnzcLk5Ec8hKG--2" target="Pf7Wr0SnzcLk5Ec8hKG--9">
          <mxGeometry width="50" height="50" relative="1" as="geometry">
            <mxPoint x="150" y="670" as="sourcePoint" />
            <mxPoint x="200" y="620" as="targetPoint" />
          </mxGeometry>
        </mxCell>
        <mxCell id="Pf7Wr0SnzcLk5Ec8hKG--2" value="&lt;font color=&quot;#ffffff&quot; style=&quot;font-size: 30px;&quot;&gt;&lt;b style=&quot;font-size: 30px;&quot;&gt;Initial &lt;br style=&quot;font-size: 30px;&quot;&gt;Config&lt;/b&gt;&lt;/font&gt;" style="rounded=1;whiteSpace=wrap;html=1;fillColor=#34A853;strokeColor=#000000;rotation=0;align=center;fontSize=30;fontFamily=Computer Modern;" vertex="1" parent="Pf7Wr0SnzcLk5Ec8hKG--1">
          <mxGeometry x="120" y="700" width="200" height="100" as="geometry" />
        </mxCell>
        <mxCell id="Pf7Wr0SnzcLk5Ec8hKG--3" value="&lt;font style=&quot;font-size: 58px;&quot; color=&quot;#ffffff&quot;&gt;Goal&lt;/font&gt;" style="ellipse;whiteSpace=wrap;html=1;aspect=fixed;strokeColor=#000000;fillColor=#EA4335;fontFamily=Computer Modern;FType=g;fontSize=58;" vertex="1" parent="Pf7Wr0SnzcLk5Ec8hKG--1">
          <mxGeometry x="680" y="160" width="160" height="160" as="geometry" />
        </mxCell>
        <mxCell id="Pf7Wr0SnzcLk5Ec8hKG--4" value="" style="endArrow=none;html=1;strokeColor=#000000;strokeWidth=6;fontColor=#FFFFFF;fontFamily=Computer Modern;" edge="1" parent="Pf7Wr0SnzcLk5Ec8hKG--1">
          <mxGeometry width="50" height="50" relative="1" as="geometry">
            <mxPoint x="40" y="960" as="sourcePoint" />
            <mxPoint x="40" y="40" as="targetPoint" />
          </mxGeometry>
        </mxCell>
        <mxCell id="Pf7Wr0SnzcLk5Ec8hKG--5" value="" style="endArrow=none;html=1;strokeColor=#000000;strokeWidth=6;fontColor=#FFFFFF;fontFamily=Computer Modern;" edge="1" parent="Pf7Wr0SnzcLk5Ec8hKG--1">
          <mxGeometry width="50" height="50" relative="1" as="geometry">
            <mxPoint x="960" y="960" as="sourcePoint" />
            <mxPoint x="960" y="40" as="targetPoint" />
          </mxGeometry>
        </mxCell>
        <mxCell id="Pf7Wr0SnzcLk5Ec8hKG--6" value="" style="endArrow=none;html=1;strokeColor=#000000;strokeWidth=6;fontColor=#FFFFFF;fontFamily=Computer Modern;" edge="1" parent="Pf7Wr0SnzcLk5Ec8hKG--1">
          <mxGeometry width="50" height="50" relative="1" as="geometry">
            <mxPoint x="40" y="960" as="sourcePoint" />
            <mxPoint x="960" y="960" as="targetPoint" />
          </mxGeometry>
        </mxCell>
        <mxCell id="Pf7Wr0SnzcLk5Ec8hKG--7" value="" style="endArrow=none;html=1;strokeColor=#000000;strokeWidth=6;fontColor=#FFFFFF;fontFamily=Computer Modern;" edge="1" parent="Pf7Wr0SnzcLk5Ec8hKG--1">
          <mxGeometry width="50" height="50" relative="1" as="geometry">
            <mxPoint x="40" y="40" as="sourcePoint" />
            <mxPoint x="960" y="40" as="targetPoint" />
          </mxGeometry>
        </mxCell>
        <mxCell id="Pf7Wr0SnzcLk5Ec8hKG--9" value="&lt;font color=&quot;#ffffff&quot;&gt;&lt;b&gt;&lt;br&gt;&lt;/b&gt;&lt;/font&gt;" style="rounded=1;whiteSpace=wrap;html=1;fillColor=#4285F4;strokeColor=#000000;rotation=-25;align=center;fontSize=30;fontFamily=Computer Modern;" vertex="1" parent="Pf7Wr0SnzcLk5Ec8hKG--1">
          <mxGeometry x="210" y="500" width="200" height="100" as="geometry" />
        </mxCell>
        <mxCell id="3Axvdb4ZnlNxERFfCfOT-1" value="&lt;font color=&quot;#ffffff&quot;&gt;&lt;b&gt;&lt;br&gt;&lt;/b&gt;&lt;/font&gt;" style="rounded=1;whiteSpace=wrap;html=1;fillColor=#4285F4;strokeColor=#000000;rotation=15;align=center;fontSize=30;fontFamily=Computer Modern;" vertex="1" parent="Pf7Wr0SnzcLk5Ec8hKG--1">
          <mxGeometry x="490" y="630" width="200" height="100" as="geometry" />
        </mxCell>
        <mxCell id="3Axvdb4ZnlNxERFfCfOT-3" value="&lt;font color=&quot;#ffffff&quot;&gt;&lt;b&gt;&lt;br&gt;&lt;/b&gt;&lt;/font&gt;" style="rounded=1;whiteSpace=wrap;html=1;fillColor=#4285F4;strokeColor=#000000;rotation=0;align=center;fontSize=30;fontFamily=Computer Modern;" vertex="1" parent="Pf7Wr0SnzcLk5Ec8hKG--1">
          <mxGeometry x="540" y="760" width="200" height="100" as="geometry" />
        </mxCell>
        <mxCell id="3Axvdb4ZnlNxERFfCfOT-5" value="&lt;font color=&quot;#ffffff&quot;&gt;&lt;b&gt;&lt;br&gt;&lt;/b&gt;&lt;/font&gt;" style="rounded=1;whiteSpace=wrap;html=1;fillColor=#4285F4;strokeColor=#000000;rotation=45;align=center;fontSize=30;fontFamily=Computer Modern;" vertex="1" parent="Pf7Wr0SnzcLk5Ec8hKG--1">
          <mxGeometry x="550" y="480" width="200" height="100" as="geometry" />
        </mxCell>
        <mxCell id="3Axvdb4ZnlNxERFfCfOT-7" value="&lt;font color=&quot;#ffffff&quot;&gt;&lt;b&gt;&lt;br&gt;&lt;/b&gt;&lt;/font&gt;" style="rounded=1;whiteSpace=wrap;html=1;fillColor=#4285F4;strokeColor=#000000;rotation=105;align=center;fontSize=30;fontFamily=Computer Modern;" vertex="1" parent="Pf7Wr0SnzcLk5Ec8hKG--1">
          <mxGeometry x="410" y="330" width="200" height="100" as="geometry" />
        </mxCell>
        <mxCell id="3Axvdb4ZnlNxERFfCfOT-9" value="&lt;font color=&quot;#ffffff&quot;&gt;&lt;b&gt;&lt;br&gt;&lt;/b&gt;&lt;/font&gt;" style="rounded=1;whiteSpace=wrap;html=1;fillColor=#4285F4;strokeColor=#000000;rotation=25;align=center;fontSize=30;fontFamily=Computer Modern;" vertex="1" parent="Pf7Wr0SnzcLk5Ec8hKG--1">
          <mxGeometry x="60" y="310" width="200" height="100" as="geometry" />
        </mxCell>
        <mxCell id="3Axvdb4ZnlNxERFfCfOT-11" value="&lt;font color=&quot;#ffffff&quot;&gt;&lt;b&gt;&lt;br&gt;&lt;/b&gt;&lt;/font&gt;" style="rounded=1;whiteSpace=wrap;html=1;fillColor=#4285F4;strokeColor=#000000;rotation=30;align=center;fontSize=30;fontFamily=Computer Modern;" vertex="1" parent="Pf7Wr0SnzcLk5Ec8hKG--1">
          <mxGeometry x="490" y="150" width="200" height="100" as="geometry" />
        </mxCell>
      </root>
    </mxGraphModel>
  </diagram>
  <diagram name="Copy of Page-1" id="5P6rIuxxj2ysfOHATAMI">
    <mxGraphModel dx="3860" dy="2500" grid="1" gridSize="10" guides="1" tooltips="1" connect="1" arrows="1" fold="1" page="1" pageScale="1" pageWidth="1000" pageHeight="1000" math="0" shadow="0" extFonts="Computer Modern^https://fonts.googleapis.com/css?family=Computer+Modern">
      <root>
        <mxCell id="s80ven71SJYXGM-_vqFk-0" />
        <mxCell id="s80ven71SJYXGM-_vqFk-1" parent="s80ven71SJYXGM-_vqFk-0" />
        <mxCell id="s80ven71SJYXGM-_vqFk-3" value="&lt;font style=&quot;font-size: 28px&quot;&gt;Goal&lt;/font&gt;" style="ellipse;whiteSpace=wrap;html=1;aspect=fixed;strokeColor=none;fillColor=#EA4335;fontFamily=Computer Modern;FType=g;fontColor=#FFFFFF;" parent="s80ven71SJYXGM-_vqFk-1" vertex="1">
          <mxGeometry x="680" y="160" width="160" height="160" as="geometry" />
        </mxCell>
        <mxCell id="s80ven71SJYXGM-_vqFk-5" value="" style="rounded=0;whiteSpace=wrap;html=1;strokeColor=#000000;fillColor=#34A853;" parent="s80ven71SJYXGM-_vqFk-1" vertex="1">
          <mxGeometry x="310" y="360" width="120" height="60" as="geometry" />
        </mxCell>
        <mxCell id="s80ven71SJYXGM-_vqFk-6" value="&lt;font style=&quot;font-size: 28px&quot; face=&quot;Computer Modern&quot;&gt;q&lt;/font&gt;&lt;font style=&quot;font-size: 23.3333px&quot; face=&quot;Computer Modern&quot;&gt;rand&lt;/font&gt;" style="text;html=1;strokeColor=none;fillColor=none;align=center;verticalAlign=middle;whiteSpace=wrap;rounded=0;rotation=0;fontColor=#34A853;" parent="s80ven71SJYXGM-_vqFk-1" vertex="1">
          <mxGeometry x="332.5" y="420" width="75" height="42.16" as="geometry" />
        </mxCell>
        <mxCell id="SgS_hqHpXQxkDekPL4gU-0" value="" style="whiteSpace=wrap;html=1;aspect=fixed;shadow=0;glass=0;comic=0;strokeColor=none;fillColor=#FBBC05;opacity=80;" parent="s80ven71SJYXGM-_vqFk-1" vertex="1">
          <mxGeometry x="80" y="630" width="200" height="200" as="geometry" />
        </mxCell>
        <mxCell id="SgS_hqHpXQxkDekPL4gU-1" value="" style="rounded=0;whiteSpace=wrap;html=1;fillColor=#4285F4;strokeColor=#000000;rotation=-60;" parent="s80ven71SJYXGM-_vqFk-1" vertex="1">
          <mxGeometry x="120" y="700" width="120" height="60" as="geometry" />
        </mxCell>
        <mxCell id="SgS_hqHpXQxkDekPL4gU-2" value="&lt;font style=&quot;font-size: 28px&quot; face=&quot;Computer Modern&quot; color=&quot;#4285f4&quot;&gt;q&lt;sub&gt;init&lt;/sub&gt;&lt;/font&gt;" style="text;html=1;strokeColor=none;fillColor=none;align=center;verticalAlign=middle;whiteSpace=wrap;rounded=0;rotation=0;" parent="s80ven71SJYXGM-_vqFk-1" vertex="1">
          <mxGeometry x="190" y="760" width="75" height="42.16" as="geometry" />
        </mxCell>
        <mxCell id="SgS_hqHpXQxkDekPL4gU-3" value="&lt;font face=&quot;Computer Modern&quot; color=&quot;#fbbc05&quot;&gt;&lt;span style=&quot;font-size: 28px&quot;&gt;G&lt;/span&gt;&lt;/font&gt;" style="text;html=1;strokeColor=none;fillColor=none;align=left;verticalAlign=middle;whiteSpace=wrap;rounded=0;rotation=0;" parent="s80ven71SJYXGM-_vqFk-1" vertex="1">
          <mxGeometry x="80" y="587.84" width="55" height="42.16" as="geometry" />
        </mxCell>
        <mxCell id="R0cWhxw50I9xrFl0RYym-0" value="" style="endArrow=none;html=1;strokeColor=#000000;strokeWidth=6;fontColor=#FFFFFF;" parent="s80ven71SJYXGM-_vqFk-1" edge="1">
          <mxGeometry width="50" height="50" relative="1" as="geometry">
            <mxPoint x="40" y="960" as="sourcePoint" />
            <mxPoint x="40" y="40" as="targetPoint" />
          </mxGeometry>
        </mxCell>
        <mxCell id="R0cWhxw50I9xrFl0RYym-1" value="" style="endArrow=none;html=1;strokeColor=#000000;strokeWidth=6;fontColor=#FFFFFF;" parent="s80ven71SJYXGM-_vqFk-1" edge="1">
          <mxGeometry width="50" height="50" relative="1" as="geometry">
            <mxPoint x="960" y="960" as="sourcePoint" />
            <mxPoint x="960" y="40" as="targetPoint" />
          </mxGeometry>
        </mxCell>
        <mxCell id="R0cWhxw50I9xrFl0RYym-2" value="" style="endArrow=none;html=1;strokeColor=#000000;strokeWidth=6;fontColor=#FFFFFF;" parent="s80ven71SJYXGM-_vqFk-1" edge="1">
          <mxGeometry width="50" height="50" relative="1" as="geometry">
            <mxPoint x="40" y="960" as="sourcePoint" />
            <mxPoint x="960" y="960" as="targetPoint" />
          </mxGeometry>
        </mxCell>
        <mxCell id="R0cWhxw50I9xrFl0RYym-3" value="" style="endArrow=none;html=1;strokeColor=#000000;strokeWidth=6;fontColor=#FFFFFF;" parent="s80ven71SJYXGM-_vqFk-1" edge="1">
          <mxGeometry width="50" height="50" relative="1" as="geometry">
            <mxPoint x="40" y="40" as="sourcePoint" />
            <mxPoint x="960" y="40" as="targetPoint" />
          </mxGeometry>
        </mxCell>
      </root>
    </mxGraphModel>
  </diagram>
  <diagram name="Copy of Copy of Page-1" id="DtKQS_F5wXIEGFQeM-Vj">
    <mxGraphModel dx="772" dy="500" grid="1" gridSize="10" guides="1" tooltips="1" connect="1" arrows="1" fold="1" page="1" pageScale="1" pageWidth="1000" pageHeight="1000" math="0" shadow="0" extFonts="Computer Modern^https://fonts.googleapis.com/css?family=Computer+Modern">
      <root>
        <mxCell id="m7Z9NFHq05asAqob4or9-0" />
        <mxCell id="m7Z9NFHq05asAqob4or9-1" parent="m7Z9NFHq05asAqob4or9-0" />
        <mxCell id="FM_RE6wy4wjzFhvalICw-0" value="" style="whiteSpace=wrap;html=1;aspect=fixed;shadow=0;glass=0;comic=0;strokeColor=none;fillColor=#FBBC05;opacity=80;" parent="m7Z9NFHq05asAqob4or9-1" vertex="1">
          <mxGeometry x="80" y="470" width="360" height="360" as="geometry" />
        </mxCell>
        <mxCell id="m7Z9NFHq05asAqob4or9-3" value="&lt;font style=&quot;font-size: 28px&quot;&gt;Goal&lt;/font&gt;" style="ellipse;whiteSpace=wrap;html=1;aspect=fixed;strokeColor=#000000;fillColor=#EA4335;fontFamily=Computer Modern;FType=g;fontColor=#FFFFFF;" parent="m7Z9NFHq05asAqob4or9-1" vertex="1">
          <mxGeometry x="680" y="160" width="160" height="160" as="geometry" />
        </mxCell>
        <mxCell id="m7Z9NFHq05asAqob4or9-5" value="" style="rounded=0;whiteSpace=wrap;html=1;strokeColor=#000000;fillColor=#34A853;shadow=0;glass=0;comic=0;opacity=40;" parent="m7Z9NFHq05asAqob4or9-1" vertex="1">
          <mxGeometry x="310" y="360" width="120" height="60" as="geometry" />
        </mxCell>
        <mxCell id="m7Z9NFHq05asAqob4or9-6" value="&lt;font style=&quot;font-size: 28px&quot; face=&quot;Computer Modern&quot;&gt;q&lt;/font&gt;&lt;font style=&quot;font-size: 23.3333px&quot; face=&quot;Computer Modern&quot;&gt;rand&lt;/font&gt;" style="text;html=1;strokeColor=none;fillColor=none;align=center;verticalAlign=middle;whiteSpace=wrap;rounded=0;rotation=0;opacity=80;textOpacity=40;fontColor=#34A853;" parent="m7Z9NFHq05asAqob4or9-1" vertex="1">
          <mxGeometry x="332.5" y="420" width="75" height="42.16" as="geometry" />
        </mxCell>
        <mxCell id="m7Z9NFHq05asAqob4or9-8" value="" style="rounded=0;whiteSpace=wrap;html=1;strokeColor=#000000;fillColor=#34A853;" parent="m7Z9NFHq05asAqob4or9-1" vertex="1">
          <mxGeometry x="240" y="480" width="120" height="60" as="geometry" />
        </mxCell>
        <mxCell id="m7Z9NFHq05asAqob4or9-9" value="&lt;font style=&quot;font-size: 28px&quot; face=&quot;Computer Modern&quot;&gt;q&lt;/font&gt;&lt;font style=&quot;font-size: 23.3333px&quot; face=&quot;Computer Modern&quot;&gt;new&lt;/font&gt;" style="text;html=1;strokeColor=none;fillColor=none;align=center;verticalAlign=middle;whiteSpace=wrap;rounded=0;rotation=0;fontColor=#34A853;" parent="m7Z9NFHq05asAqob4or9-1" vertex="1">
          <mxGeometry x="262.5" y="540" width="75" height="42.16" as="geometry" />
        </mxCell>
        <mxCell id="m7Z9NFHq05asAqob4or9-12" value="&lt;p class=&quot;p1&quot; style=&quot;margin: 0px ; font-stretch: normal ; line-height: normal ; font-family: &amp;#34;times&amp;#34;&quot;&gt;&lt;font color=&quot;#ea4335&quot; style=&quot;font-size: 31px&quot;&gt;∆ q&lt;/font&gt;&lt;/p&gt;" style="text;html=1;strokeColor=none;fillColor=none;align=center;verticalAlign=middle;whiteSpace=wrap;rounded=0;rotation=0;" parent="m7Z9NFHq05asAqob4or9-1" vertex="1">
          <mxGeometry x="170" y="582.16" width="70" height="42.16" as="geometry" />
        </mxCell>
        <mxCell id="FM_RE6wy4wjzFhvalICw-1" value="" style="rounded=0;whiteSpace=wrap;html=1;fillColor=#4285F4;strokeColor=#000000;rotation=-60;" parent="m7Z9NFHq05asAqob4or9-1" vertex="1">
          <mxGeometry x="120" y="700" width="120" height="60" as="geometry" />
        </mxCell>
        <mxCell id="FM_RE6wy4wjzFhvalICw-2" value="&lt;font style=&quot;font-size: 28px&quot; face=&quot;Computer Modern&quot; color=&quot;#4285f4&quot;&gt;q&lt;sub&gt;init&lt;/sub&gt;&lt;/font&gt;" style="text;html=1;strokeColor=none;fillColor=none;align=center;verticalAlign=middle;whiteSpace=wrap;rounded=0;rotation=0;" parent="m7Z9NFHq05asAqob4or9-1" vertex="1">
          <mxGeometry x="190" y="760" width="75" height="42.16" as="geometry" />
        </mxCell>
        <mxCell id="FM_RE6wy4wjzFhvalICw-3" value="&lt;font face=&quot;Computer Modern&quot; color=&quot;#fbbc05&quot;&gt;&lt;span style=&quot;font-size: 28px&quot;&gt;G&lt;/span&gt;&lt;/font&gt;" style="text;html=1;strokeColor=none;fillColor=none;align=left;verticalAlign=middle;whiteSpace=wrap;rounded=0;rotation=0;" parent="m7Z9NFHq05asAqob4or9-1" vertex="1">
          <mxGeometry x="80" y="427.84000000000003" width="55" height="42.16" as="geometry" />
        </mxCell>
        <mxCell id="m7Z9NFHq05asAqob4or9-10" value="" style="endArrow=none;html=1;strokeColor=#EA4335;strokeWidth=3;" parent="m7Z9NFHq05asAqob4or9-1" edge="1">
          <mxGeometry width="50" height="50" relative="1" as="geometry">
            <mxPoint x="170" y="740" as="sourcePoint" />
            <mxPoint x="300" y="510" as="targetPoint" />
          </mxGeometry>
        </mxCell>
        <mxCell id="9LepM2AuOgnlV3aYDy9L-0" value="" style="endArrow=none;html=1;strokeColor=#000000;strokeWidth=6;fontColor=#FFFFFF;" parent="m7Z9NFHq05asAqob4or9-1" edge="1">
          <mxGeometry width="50" height="50" relative="1" as="geometry">
            <mxPoint x="40" y="960" as="sourcePoint" />
            <mxPoint x="40" y="40" as="targetPoint" />
          </mxGeometry>
        </mxCell>
        <mxCell id="9LepM2AuOgnlV3aYDy9L-1" value="" style="endArrow=none;html=1;strokeColor=#000000;strokeWidth=6;fontColor=#FFFFFF;" parent="m7Z9NFHq05asAqob4or9-1" edge="1">
          <mxGeometry width="50" height="50" relative="1" as="geometry">
            <mxPoint x="960" y="960" as="sourcePoint" />
            <mxPoint x="960" y="40" as="targetPoint" />
          </mxGeometry>
        </mxCell>
        <mxCell id="9LepM2AuOgnlV3aYDy9L-2" value="" style="endArrow=none;html=1;strokeColor=#000000;strokeWidth=6;fontColor=#FFFFFF;" parent="m7Z9NFHq05asAqob4or9-1" edge="1">
          <mxGeometry width="50" height="50" relative="1" as="geometry">
            <mxPoint x="40" y="960" as="sourcePoint" />
            <mxPoint x="960" y="960" as="targetPoint" />
          </mxGeometry>
        </mxCell>
        <mxCell id="9LepM2AuOgnlV3aYDy9L-3" value="" style="endArrow=none;html=1;strokeColor=#000000;strokeWidth=6;fontColor=#FFFFFF;" parent="m7Z9NFHq05asAqob4or9-1" edge="1">
          <mxGeometry width="50" height="50" relative="1" as="geometry">
            <mxPoint x="40" y="40" as="sourcePoint" />
            <mxPoint x="960" y="40" as="targetPoint" />
          </mxGeometry>
        </mxCell>
      </root>
    </mxGraphModel>
  </diagram>
  <diagram name="Copy of Copy of Copy of Page-1" id="98xP-W2kHNtKTUqkhpRw">
    <mxGraphModel dx="5147" dy="3333" grid="1" gridSize="10" guides="1" tooltips="1" connect="1" arrows="1" fold="1" page="1" pageScale="1" pageWidth="1000" pageHeight="1000" math="0" shadow="0" extFonts="Computer Modern^https://fonts.googleapis.com/css?family=Computer+Modern">
      <root>
        <mxCell id="bmooS-1vzPZvilmwwjqK-0" />
        <mxCell id="bmooS-1vzPZvilmwwjqK-1" parent="bmooS-1vzPZvilmwwjqK-0" />
        <mxCell id="0u6BHTBLvfxGwBOz70ZF-0" value="" style="whiteSpace=wrap;html=1;aspect=fixed;shadow=0;glass=0;comic=0;strokeColor=none;fillColor=#FBBC05;opacity=80;" parent="bmooS-1vzPZvilmwwjqK-1" vertex="1">
          <mxGeometry x="80" y="119" width="840" height="840" as="geometry" />
        </mxCell>
        <mxCell id="bmooS-1vzPZvilmwwjqK-3" value="&lt;font style=&quot;font-size: 28px&quot;&gt;Goal&lt;/font&gt;" style="ellipse;whiteSpace=wrap;html=1;aspect=fixed;strokeColor=#000000;fillColor=#EA4335;fontFamily=Computer Modern;FType=g;fontColor=#FFFFFF;" parent="bmooS-1vzPZvilmwwjqK-1" vertex="1">
          <mxGeometry x="680" y="160" width="160" height="160" as="geometry" />
        </mxCell>
        <mxCell id="bmooS-1vzPZvilmwwjqK-6" value="" style="rounded=0;whiteSpace=wrap;html=1;strokeColor=#000000;fillColor=#34A853;" parent="bmooS-1vzPZvilmwwjqK-1" vertex="1">
          <mxGeometry x="240" y="480" width="120" height="60" as="geometry" />
        </mxCell>
        <mxCell id="bmooS-1vzPZvilmwwjqK-9" value="" style="rounded=0;whiteSpace=wrap;html=1;fillColor=#4285F4;strokeColor=#000000;rotation=-60;" parent="bmooS-1vzPZvilmwwjqK-1" vertex="1">
          <mxGeometry x="120" y="700" width="120" height="60" as="geometry" />
        </mxCell>
        <mxCell id="bmooS-1vzPZvilmwwjqK-10" value="&lt;font style=&quot;font-size: 28px&quot; face=&quot;Computer Modern&quot; color=&quot;#4285f4&quot;&gt;q&lt;sub&gt;init&lt;/sub&gt;&lt;/font&gt;" style="text;html=1;strokeColor=none;fillColor=none;align=center;verticalAlign=middle;whiteSpace=wrap;rounded=0;rotation=0;" parent="bmooS-1vzPZvilmwwjqK-1" vertex="1">
          <mxGeometry x="180" y="760" width="75" height="42.16" as="geometry" />
        </mxCell>
        <mxCell id="bmooS-1vzPZvilmwwjqK-11" value="&lt;font face=&quot;Computer Modern&quot; color=&quot;#fbbc05&quot;&gt;&lt;span style=&quot;font-size: 28px&quot;&gt;G&lt;/span&gt;&lt;/font&gt;" style="text;html=1;strokeColor=none;fillColor=none;align=left;verticalAlign=middle;whiteSpace=wrap;rounded=0;rotation=0;" parent="bmooS-1vzPZvilmwwjqK-1" vertex="1">
          <mxGeometry x="80" y="76.84000000000006" width="55" height="42.16" as="geometry" />
        </mxCell>
        <mxCell id="bmooS-1vzPZvilmwwjqK-12" value="" style="endArrow=none;html=1;strokeColor=#EA4335;strokeWidth=3;" parent="bmooS-1vzPZvilmwwjqK-1" edge="1">
          <mxGeometry width="50" height="50" relative="1" as="geometry">
            <mxPoint x="170" y="740" as="sourcePoint" />
            <mxPoint x="300" y="510" as="targetPoint" />
          </mxGeometry>
        </mxCell>
        <mxCell id="bmooS-1vzPZvilmwwjqK-13" value="" style="rounded=0;whiteSpace=wrap;html=1;strokeColor=#000000;fillColor=#34A853;rotation=30;" parent="bmooS-1vzPZvilmwwjqK-1" vertex="1">
          <mxGeometry x="230" y="820" width="120" height="60" as="geometry" />
        </mxCell>
        <mxCell id="bmooS-1vzPZvilmwwjqK-14" value="" style="rounded=0;whiteSpace=wrap;html=1;strokeColor=#000000;fillColor=#34A853;rotation=-30;" parent="bmooS-1vzPZvilmwwjqK-1" vertex="1">
          <mxGeometry x="320" y="570" width="120" height="60" as="geometry" />
        </mxCell>
        <mxCell id="KQizgc2_Ni4SVbpLPpZT-0" value="" style="rounded=0;whiteSpace=wrap;html=1;strokeColor=#000000;fillColor=#34A853;rotation=-60;" parent="bmooS-1vzPZvilmwwjqK-1" vertex="1">
          <mxGeometry x="390" y="570" width="120" height="60" as="geometry" />
        </mxCell>
        <mxCell id="KQizgc2_Ni4SVbpLPpZT-1" value="" style="rounded=0;whiteSpace=wrap;html=1;strokeColor=#000000;fillColor=#34A853;rotation=-15;" parent="bmooS-1vzPZvilmwwjqK-1" vertex="1">
          <mxGeometry x="420" y="802.16" width="120" height="60" as="geometry" />
        </mxCell>
        <mxCell id="KQizgc2_Ni4SVbpLPpZT-2" value="" style="rounded=0;whiteSpace=wrap;html=1;strokeColor=#000000;fillColor=#34A853;rotation=-105;" parent="bmooS-1vzPZvilmwwjqK-1" vertex="1">
          <mxGeometry x="135" y="310" width="120" height="60" as="geometry" />
        </mxCell>
        <mxCell id="KQizgc2_Ni4SVbpLPpZT-3" value="" style="rounded=0;whiteSpace=wrap;html=1;strokeColor=#000000;fillColor=#34A853;rotation=30;" parent="bmooS-1vzPZvilmwwjqK-1" vertex="1">
          <mxGeometry x="570" y="580" width="120" height="60" as="geometry" />
        </mxCell>
        <mxCell id="KQizgc2_Ni4SVbpLPpZT-4" value="" style="rounded=0;whiteSpace=wrap;html=1;strokeColor=#000000;fillColor=#34A853;rotation=-75;" parent="bmooS-1vzPZvilmwwjqK-1" vertex="1">
          <mxGeometry x="800" y="450" width="120" height="60" as="geometry" />
        </mxCell>
        <mxCell id="KQizgc2_Ni4SVbpLPpZT-5" value="" style="rounded=0;whiteSpace=wrap;html=1;strokeColor=#000000;fillColor=#34A853;rotation=-120;" parent="bmooS-1vzPZvilmwwjqK-1" vertex="1">
          <mxGeometry x="740" y="330" width="120" height="60" as="geometry" />
        </mxCell>
        <mxCell id="KQizgc2_Ni4SVbpLPpZT-6" value="" style="rounded=0;whiteSpace=wrap;html=1;strokeColor=#000000;fillColor=#34A853;rotation=-150;" parent="bmooS-1vzPZvilmwwjqK-1" vertex="1">
          <mxGeometry x="280" y="220" width="120" height="60" as="geometry" />
        </mxCell>
        <mxCell id="KQizgc2_Ni4SVbpLPpZT-8" value="" style="endArrow=none;html=1;strokeColor=#EA4335;strokeWidth=3;" parent="bmooS-1vzPZvilmwwjqK-1" edge="1">
          <mxGeometry width="50" height="50" relative="1" as="geometry">
            <mxPoint x="295" y="850" as="sourcePoint" />
            <mxPoint x="480" y="830" as="targetPoint" />
          </mxGeometry>
        </mxCell>
        <mxCell id="KQizgc2_Ni4SVbpLPpZT-9" value="" style="endArrow=none;html=1;strokeColor=#EA4335;strokeWidth=3;" parent="bmooS-1vzPZvilmwwjqK-1" edge="1">
          <mxGeometry width="50" height="50" relative="1" as="geometry">
            <mxPoint x="170" y="736.08" as="sourcePoint" />
            <mxPoint x="300" y="850" as="targetPoint" />
          </mxGeometry>
        </mxCell>
        <mxCell id="KQizgc2_Ni4SVbpLPpZT-10" value="" style="endArrow=none;html=1;strokeColor=#EA4335;strokeWidth=3;fontColor=#FFFFFF;" parent="bmooS-1vzPZvilmwwjqK-1" edge="1">
          <mxGeometry width="50" height="50" relative="1" as="geometry">
            <mxPoint x="370" y="600" as="sourcePoint" />
            <mxPoint x="450" y="590" as="targetPoint" />
          </mxGeometry>
        </mxCell>
        <mxCell id="KQizgc2_Ni4SVbpLPpZT-11" value="" style="endArrow=none;html=1;strokeColor=#EA4335;strokeWidth=3;fontColor=#FFFFFF;" parent="bmooS-1vzPZvilmwwjqK-1" edge="1">
          <mxGeometry width="50" height="50" relative="1" as="geometry">
            <mxPoint x="370" y="600" as="sourcePoint" />
            <mxPoint x="300" y="510" as="targetPoint" />
          </mxGeometry>
        </mxCell>
        <mxCell id="KQizgc2_Ni4SVbpLPpZT-12" value="" style="endArrow=none;html=1;strokeColor=#EA4335;strokeWidth=3;fontColor=#FFFFFF;" parent="bmooS-1vzPZvilmwwjqK-1" edge="1">
          <mxGeometry width="50" height="50" relative="1" as="geometry">
            <mxPoint x="300" y="510" as="sourcePoint" />
            <mxPoint x="200" y="340" as="targetPoint" />
          </mxGeometry>
        </mxCell>
        <mxCell id="KQizgc2_Ni4SVbpLPpZT-13" value="" style="endArrow=none;html=1;strokeColor=#EA4335;strokeWidth=3;fontColor=#FFFFFF;" parent="bmooS-1vzPZvilmwwjqK-1" edge="1">
          <mxGeometry width="50" height="50" relative="1" as="geometry">
            <mxPoint x="200" y="340" as="sourcePoint" />
            <mxPoint x="340" y="250" as="targetPoint" />
          </mxGeometry>
        </mxCell>
        <mxCell id="KQizgc2_Ni4SVbpLPpZT-14" value="" style="endArrow=none;html=1;strokeColor=#EA4335;strokeWidth=3;fontColor=#FFFFFF;" parent="bmooS-1vzPZvilmwwjqK-1" edge="1">
          <mxGeometry width="50" height="50" relative="1" as="geometry">
            <mxPoint x="450" y="590" as="sourcePoint" />
            <mxPoint x="630" y="610" as="targetPoint" />
          </mxGeometry>
        </mxCell>
        <mxCell id="KQizgc2_Ni4SVbpLPpZT-15" value="" style="endArrow=none;html=1;strokeColor=#EA4335;strokeWidth=3;fontColor=#FFFFFF;" parent="bmooS-1vzPZvilmwwjqK-1" edge="1">
          <mxGeometry width="50" height="50" relative="1" as="geometry">
            <mxPoint x="630" y="610" as="sourcePoint" />
            <mxPoint x="860" y="480" as="targetPoint" />
          </mxGeometry>
        </mxCell>
        <mxCell id="KQizgc2_Ni4SVbpLPpZT-16" value="" style="endArrow=none;html=1;strokeColor=#EA4335;strokeWidth=3;fontColor=#FFFFFF;" parent="bmooS-1vzPZvilmwwjqK-1" edge="1">
          <mxGeometry width="50" height="50" relative="1" as="geometry">
            <mxPoint x="860" y="480" as="sourcePoint" />
            <mxPoint x="800" y="360" as="targetPoint" />
          </mxGeometry>
        </mxCell>
        <mxCell id="Yp1lsHUQ_DKbMyBXq6gH-0" value="" style="endArrow=none;html=1;strokeColor=#000000;strokeWidth=6;fontColor=#FFFFFF;" parent="bmooS-1vzPZvilmwwjqK-1" edge="1">
          <mxGeometry width="50" height="50" relative="1" as="geometry">
            <mxPoint x="40" y="960" as="sourcePoint" />
            <mxPoint x="40" y="40" as="targetPoint" />
          </mxGeometry>
        </mxCell>
        <mxCell id="Yp1lsHUQ_DKbMyBXq6gH-1" value="" style="endArrow=none;html=1;strokeColor=#000000;strokeWidth=6;fontColor=#FFFFFF;" parent="bmooS-1vzPZvilmwwjqK-1" edge="1">
          <mxGeometry width="50" height="50" relative="1" as="geometry">
            <mxPoint x="960" y="960" as="sourcePoint" />
            <mxPoint x="960" y="40" as="targetPoint" />
          </mxGeometry>
        </mxCell>
        <mxCell id="Yp1lsHUQ_DKbMyBXq6gH-2" value="" style="endArrow=none;html=1;strokeColor=#000000;strokeWidth=6;fontColor=#FFFFFF;" parent="bmooS-1vzPZvilmwwjqK-1" edge="1">
          <mxGeometry width="50" height="50" relative="1" as="geometry">
            <mxPoint x="40" y="960" as="sourcePoint" />
            <mxPoint x="960" y="960" as="targetPoint" />
          </mxGeometry>
        </mxCell>
        <mxCell id="Yp1lsHUQ_DKbMyBXq6gH-3" value="" style="endArrow=none;html=1;strokeColor=#000000;strokeWidth=6;fontColor=#FFFFFF;" parent="bmooS-1vzPZvilmwwjqK-1" edge="1">
          <mxGeometry width="50" height="50" relative="1" as="geometry">
            <mxPoint x="40" y="40" as="sourcePoint" />
            <mxPoint x="960" y="40" as="targetPoint" />
          </mxGeometry>
        </mxCell>
      </root>
    </mxGraphModel>
  </diagram>
</mxfile>
